<?xml version="1.0" encoding="utf-8"?>
<!-- Generator: Adobe Illustrator 15.0.0, SVG Export Plug-In . SVG Version: 6.00 Build 0)  -->
<!DOCTYPE svg PUBLIC "-//W3C//DTD SVG 1.1//EN" "http://www.w3.org/Graphics/SVG/1.1/DTD/svg11.dtd">
<svg version="1.1" id="Layer_1" xmlns="http://www.w3.org/2000/svg" xmlns:xlink="http://www.w3.org/1999/xlink" x="0px" y="0px"
	 width="245.203px" height="49.41px" viewBox="0 0 245.203 49.41" enable-background="new 0 0 245.203 49.41" xml:space="preserve">
<path fill="#323232" d="M239.805,16.289c-0.277,0-0.509-0.092-0.693-0.323c-0.184-0.23-0.276-0.508-0.276-0.831v-3.184h0.554v1.108
	h0.832v0.6h-0.832v1.477c0,0.14,0.047,0.277,0.094,0.369c0.092,0.14,0.185,0.186,0.322,0.186h0.461v0.6L239.805,16.289"/>
<path fill="#323232" d="M244.604,16.289v-2.123c0-0.139-0.047-0.23-0.139-0.369c-0.093-0.092-0.186-0.139-0.369-0.139h-0.878v2.63
	h-0.6v-2.63h-0.83c-0.14,0-0.229,0.046-0.323,0.139c-0.092,0.139-0.139,0.23-0.139,0.369v2.123h-0.6v-2.123
	c0-0.323,0.092-0.6,0.322-0.785c0.186-0.229,0.461-0.322,0.738-0.322h2.308c0.322,0,0.599,0.092,0.783,0.322
	c0.231,0.231,0.324,0.509,0.324,0.831v2.077H244.604"/>
<path fill="#323232" d="M133.064,32.717h0.646v4.755h-0.646V32.717 M141.465,32.717h0.924v4.755h-0.646v-4.107l-2.77,4.107h-0.6
	l-2.77-4.107v4.107h-0.646v-4.755h0.923l2.813,4.153L141.465,32.717z M143.68,32.717h3.368c0.97,0,1.894,0.369,1.894,1.386
	c0,0.877-0.785,1.384-2.17,1.384h-2.445v1.985h-0.646V32.717z M144.325,35.025h2.491c1.107,0,1.432-0.369,1.432-0.923
	c0-0.738-0.555-0.97-1.292-0.97h-2.631V35.025z M149.725,32.717h0.646v4.292h4.016v0.463h-4.66v-4.755H149.725z M155.032,32.717
	h4.983v0.416h-4.293v1.66h4.153v0.416h-4.153v1.8h4.385v0.463h-5.075V32.717z M167.63,36.04h-3.321l-0.832,1.433h-0.691l2.814-4.755
	h0.784l2.814,4.755h-0.738L167.63,36.04z M165.968,33.179l-1.384,2.398h2.77L165.968,33.179z M169.752,32.717h0.785l4.384,4.062
	v-4.062h0.646v4.755h-0.736l-4.432-4.062v4.062h-0.646L169.752,32.717L169.752,32.717z M176.721,32.717h3.045
	c1.848,0,2.771,0.877,2.771,2.354c0,1.385-0.923,2.4-2.677,2.4h-3.139V32.717z M177.366,37.009h2.354
	c1.152,0,2.121-0.462,2.121-1.938c0-1.246-0.646-1.938-2.121-1.938h-2.354V37.009z M190.241,34.055
	c-0.093-0.783-0.97-1.016-1.983-1.016c-0.97,0-1.754,0.276-1.754,0.831c0,0.646,0.784,0.784,2.309,0.969
	c1.106,0.14,2.261,0.369,2.261,1.246c0,1.199-1.386,1.522-2.63,1.522c-1.569,0-2.725-0.415-2.815-1.707h0.646
	c0.094,1.015,0.971,1.245,2.17,1.245c0.97,0,1.938-0.186,1.938-0.97c0-0.691-1.153-0.784-2.308-0.923
	c-1.477-0.185-2.262-0.507-2.262-1.292c0-1.061,1.246-1.385,2.446-1.385c1.292,0,2.584,0.369,2.63,1.478L190.241,34.055
	L190.241,34.055z M198.409,32.717h0.878v4.755h-0.646v-4.107l-2.769,4.107h-0.601l-2.77-4.107v4.107h-0.646v-4.755h0.97l2.769,4.153
	L198.409,32.717z M204.686,36.04h-3.275l-0.877,1.433h-0.691l2.86-4.755h0.737l2.861,4.755h-0.783L204.686,36.04z M203.07,33.179
	l-1.432,2.398h2.771L203.07,33.179z M206.9,32.717h3.414c1.062,0,2.031,0.277,2.031,1.293c0,0.508-0.416,1.016-1.199,1.152l0,0
	c0.877,0.093,1.061,0.555,1.106,1.338c0,0.277,0.046,0.877,0.229,0.972h-0.737c-0.093-0.095-0.14-0.463-0.14-0.972
	c-0.045-0.83-0.461-1.106-1.521-1.106h-2.538v2.078H206.9V32.717z M207.547,34.932h2.77c0.691,0,1.338-0.23,1.338-0.923
	c0-0.737-0.691-0.877-1.293-0.877h-2.813L207.547,34.932L207.547,34.932z M215.161,33.133h-2.445v-0.416h5.583v0.416h-2.49v4.339
	h-0.646L215.161,33.133L215.161,33.133z M131.404,34.055c-0.092-0.783-0.969-1.016-1.984-1.016s-1.754,0.276-1.754,0.831
	c0,0.646,0.738,0.784,2.262,0.969c1.153,0.14,2.309,0.369,2.309,1.246c0,1.199-1.432,1.522-2.631,1.522
	c-1.569,0-2.77-0.415-2.861-1.707h0.646c0.139,1.015,1.014,1.245,2.215,1.245c0.922,0,1.893-0.186,1.893-0.97
	c0-0.691-1.107-0.784-2.262-0.923c-1.478-0.185-2.309-0.507-2.309-1.292c0-1.061,1.293-1.385,2.492-1.385
	c1.292,0,2.584,0.369,2.631,1.478L131.404,34.055L131.404,34.055z"/>
<path fill="#323232" d="M119.016,13.142h2.73h0.558h8.973c2.943,0,5.351,2.406,5.351,5.351v11.648h-2.896V18.883
	c0-1.405-1.15-2.557-2.558-2.557h-4.579v13.815H123.7V16.326h-1.395h-0.558h-2.628c-1.406,0-2.558,1.151-2.558,2.557v11.259h-2.896
	V18.493C113.665,15.549,116.072,13.142,119.016,13.142 M151.796,16.326c1.405,0,2.558,1.151,2.558,2.557c0,1.841,0,3.682,0,5.521
	c0,1.406-1.151,2.558-2.558,2.558c-2.272,0-4.545,0-6.817,0c-1.404,0-2.557-1.15-2.557-2.558c0-1.84,0-3.681,0-5.521
	c0-1.405,1.151-2.557,2.557-2.557C147.251,16.326,149.523,16.326,151.796,16.326z M144.876,30.145c2.341,0,4.683,0,7.022,0
	c2.942,0,5.351-2.408,5.351-5.352c0-2.101,0-4.201,0-6.302c0-2.943-2.407-5.351-5.351-5.351c-2.34,0-4.683,0-7.022,0
	c-2.942,0-5.351,2.406-5.351,5.351c0,2.101,0,4.201,0,6.302C139.525,27.737,141.934,30.145,144.876,30.145z M89.42,13.142
	c4.088,0,3.135,0,7.223,0c2.942,0,5.35,2.41,5.35,5.351v11.648h-2.896V18.883c0-1.405-1.15-2.557-2.557-2.557
	c-12.898,0,5.852,0-7.016,0c-1.406,0-2.558,1.151-2.558,2.557v11.259H84.07V18.493C84.07,15.549,86.478,13.142,89.42,13.142z
	 M165.305,13.142c4.088,0,3.135,0,7.223,0c2.943,0,5.351,2.41,5.351,5.351v11.648h-2.896V18.883c0-1.405-1.151-2.557-2.558-2.557
	c-12.897,0,5.851,0-7.017,0c-1.405,0-2.557,1.151-2.557,2.557v11.259h-2.896V18.493C159.954,15.549,162.361,13.142,165.305,13.142z
	 M221.096,35.918h10.281c2.943,0,5.352-2.41,5.352-5.351v-9.081V18.92v-5.776h-2.896v5.776v2.567v5.471h-9.573
	c-1.404,0-2.557-1.149-2.557-2.557V13.143h-2.896v11.648c0,2.941,2.407,5.351,5.352,5.351h9.676v0.037
	c0,1.404-1.15,2.557-2.559,2.557h-10.18V35.918L221.096,35.918z M213.464,19.1v0.089v0.217c0,1.405-1.151,2.557-2.558,2.557h-9.562
	l-0.011-2.557v-0.264v-0.261c0-1.405,1.149-2.557,2.558-2.557c12.866,0-5.883,0,7.016,0c1.406,0,2.558,1.151,2.558,2.557V19.1
	L213.464,19.1z M201.445,25.147h9.563c2.942,0,5.351-2.41,5.351-5.352c0-0.435,0-0.869,0-1.304c0-2.939-2.407-5.351-5.351-5.351
	c-4.088,0-3.136,0-7.222,0c-2.943,0-5.352,2.406-5.352,5.351c0,2.1,0,4.199,0,6.299c0,2.941,2.407,5.351,5.352,5.351h11.322v-3.185
	h-11.221C202.744,26.958,201.768,26.192,201.445,25.147z M183.684,7.687v11.767l10.926-6.353h1.636v2.623l-10.136,5.894
	l10.136,5.896v2.622h-1.636l-10.926-6.354v6.359h-2.896V7.687H183.684z M81.058,13.161v16.98h-2.896v-16.98H81.058z M107.197,13.161
	v16.98h-2.896v-16.98H107.197z M57.54,13.142h2.731h0.557h8.974c2.942,0,5.351,2.406,5.351,5.351v11.648h-2.896V18.883
	c0-1.405-1.151-2.557-2.557-2.557h-4.58v13.815h-2.896V16.326h-1.395h-0.557h-2.629c-1.406,0-2.557,1.151-2.557,2.557v11.259H52.19
	V18.493C52.189,15.549,54.597,13.142,57.54,13.142z"/>
<path fill="#FFCE01" d="M27.141,11.021c0.116,0.544,1.015,3.982,0.664,7.354c-0.376,3.602-0.825,5.625-3.826,6.675
	c-3,1.052-9.15,1.727-12.45,1.875c-3.3,0.15-5.101,0.302-6.301-0.6c-1.199-0.9-1.8-2.025-1.8-2.025h-1.65c0,0,0.9,3.302,5.101,4.875
	c4.2,1.576,12.825,0.376,15.001,0.076c2.175-0.301,6.9-1.051,8.101-4.426s-0.226-9.375-0.976-11.25
	c-0.59-1.476-0.948-2.533-1.074-2.917L27.141,11.021z"/>
<path fill="#FDBD10" d="M1.702,24.301l0.751,4.951c0,0,0.75,3.601,4.125,4.875c3.375,1.275,10.575,2.55,19.201,0.75
	c8.625-1.8,11.775-7.426,12.15-9.375c0.375-1.951-1.05-7.051-4.65-10.801c-3.274-3.412-4.378-4.278-4.551-4.407l1.025-0.468
	l-0.02-0.05c0.532,0.241,4.852,2.309,9.695,7.926c5.176,6,3.45,11.851,0.825,14.625c-2.625,2.775-8.851,6.301-18.226,6.9
	c-9.376,0.601-13.426-1.199-16.201-2.249c-2.775-1.052-6.301-2.775-5.775-7.2c0.524-4.426,0.6-5.478,0.6-5.478H1.702z"/>
<path fill="#FDBD10" d="M26.154,0l-5.625,4.275l6.601,6.75l2.624-1.2C29.754,9.826,25.929-0.075,26.154,0"/>
</svg>
